<?xml version="1.0" standalone="no"?>
<!DOCTYPE svg PUBLIC "-//W3C//DTD SVG 20010904//EN"
 "http://www.w3.org/TR/2001/REC-SVG-20010904/DTD/svg10.dtd">
<svg version="1.0" xmlns="http://www.w3.org/2000/svg"
 width="6000.000000pt" height="6000.000000pt" viewBox="0 0 6000.000000 6000.000000"
 preserveAspectRatio="xMidYMid meet">
<metadata>
Created by potrace 1.14, written by Peter Selinger 2001-2017
</metadata>
<g transform="translate(0.000000,6000.000000) scale(0.100000,-0.100000)"
fill="#000000" stroke="none">
<path d="M29375 56520 c-2203 -91 -4232 -422 -6346 -1036 -1841 -533 -3726
-1330 -5449 -2302 -1785 -1007 -3483 -2251 -4990 -3656 -393 -366 -1761 -1735
-2106 -2106 -1223 -1318 -2268 -2690 -3184 -4185 -2187 -3565 -3473 -7572
-3770 -11740 -53 -752 -63 -1111 -57 -2075 5 -841 12 -1043 57 -1675 308
-4299 1670 -8437 3974 -12070 2039 -3217 4768 -5969 7946 -8017 2204 -1420
4518 -2469 7000 -3173 1560 -443 3036 -719 4700 -879 1206 -117 2761 -140
4055 -61 1041 64 2014 183 3075 375 2416 439 4802 1239 6995 2345 2210 1115
4214 2506 6025 4181 322 298 674 644 1362 1339 786 795 1063 1091 1544 1651
1595 1857 2945 3972 3955 6196 1669 3673 2454 7660 2308 11728 -124 3479 -921
6823 -2380 9990 -133 288 -502 1031 -652 1312 -1024 1915 -2268 3682 -3741
5308 -369 407 -927 977 -1361 1389 -2316 2196 -5005 3953 -7905 5163 -1408
587 -2768 1024 -4260 1366 -1214 279 -2512 474 -3835 576 -616 48 -932 58
-1860 61 -495 2 -990 -1 -1100 -5z m1970 -450 c689 -31 1170 -65 1700 -120
3672 -383 7155 -1533 10370 -3423 1203 -708 2482 -1619 3565 -2541 604 -514
960 -844 1575 -1460 715 -716 1195 -1249 1811 -2011 2016 -2496 3548 -5346
4504 -8380 707 -2243 1092 -4515 1170 -6890 13 -388 13 -1279 0 -1650 -97
-2844 -636 -5553 -1630 -8200 -79 -211 -302 -766 -306 -762 -2 2 36 116 85
253 735 2061 1214 4285 1400 6509 71 848 96 1547 88 2460 -7 745 -26 1189 -78
1845 -324 4098 -1617 8057 -3777 11565 -1547 2511 -3517 4757 -5798 6611
-2007 1631 -4189 2929 -6579 3914 -2140 881 -4441 1480 -6725 1750 -750 89
-1285 132 -2090 170 -373 18 -1366 24 -1805 11 -1746 -51 -3464 -272 -5151
-662 -927 -214 -1951 -515 -2854 -837 -348 -124 -330 -112 70 48 1841 738
3853 1276 5810 1554 1050 149 1961 226 3065 256 353 10 1265 4 1580 -10z
m-1080 -800 c1915 -52 3704 -297 5555 -760 3234 -808 6322 -2269 9010 -4263
1920 -1425 3609 -3080 5076 -4977 2057 -2658 3575 -5706 4454 -8945 1171
-4315 1183 -8955 35 -13270 -973 -3657 -2730 -7028 -5184 -9945 -472 -561
-976 -1110 -1289 -1402 -718 -672 -1410 -1252 -2187 -1833 -1569 -1175 -3140
-2097 -4995 -2933 -1227 -552 -2726 -1070 -4090 -1411 -1708 -428 -3276 -660
-5070 -751 -889 -44 -1943 -34 -2925 31 -3361 219 -6676 1119 -9705 2634
-2039 1020 -3965 2332 -5680 3870 -598 536 -1343 1276 -1891 1880 -2683 2954
-4661 6533 -5724 10355 -952 3423 -1181 7055 -669 10585 532 3668 1863 7184
3895 10292 831 1271 1760 2452 2813 3576 321 342 1197 1121 1861 1653 1850
1483 3959 2738 6110 3636 2257 943 4611 1555 7025 1827 614 70 1164 111 1895
141 494 20 1157 24 1680 10z m-9725 -1150 c-8 -5 -19 -10 -25 -10 -5 0 -3 5 5
10 8 5 20 10 25 10 6 0 3 -5 -5 -10z m-14699 -14757 c-12 -20 -14 -14 -5 12 4
9 9 14 11 11 3 -2 0 -13 -6 -23z m-51 -144 c-827 -2301 -1331 -4769 -1475
-7224 -53 -909 -59 -2027 -15 -2875 185 -3540 1031 -6857 2556 -10024 714
-1483 1582 -2911 2597 -4276 731 -982 1590 -1975 2457 -2840 1688 -1684 3466
-3047 5520 -4232 920 -531 1872 -1000 2950 -1455 593 -251 1465 -571 2048
-754 436 -136 484 -150 814 -245 1776 -510 3694 -835 5563 -944 604 -35 897
-43 1615 -43 649 0 837 5 1390 33 2430 126 4942 627 7239 1441 107 38 196 68
198 66 3 -4 -437 -181 -642 -258 -1500 -564 -2986 -972 -4542 -1248 -1010
-179 -1897 -283 -3043 -356 -521 -33 -1606 -45 -2255 -25 -2511 79 -4949 513
-7286 1299 -955 321 -1671 603 -2594 1023 -202 92 -767 369 -1060 521 -1348
695 -2695 1555 -3910 2496 -1481 1146 -2836 2452 -4033 3886 -1545 1850 -2808
3880 -3784 6080 -1240 2795 -1970 5824 -2143 8895 -52 935 -52 1985 0 2920
148 2620 690 5173 1620 7630 97 257 247 631 252 627 2 -2 -15 -55 -37 -118z
m48301 -18626 c-12 -20 -14 -14 -5 12 4 9 9 14 11 11 3 -2 0 -13 -6 -23z"/>
<path d="M29513 48934 c-102 -50 -412 -422 -637 -763 -280 -424 -485 -880
-591 -1316 -15 -60 -28 -111 -30 -113 -1 -1 -39 20 -84 48 -327 203 -782 385
-1236 495 -324 79 -742 137 -1001 139 l-150 1 -49 -30 c-31 -19 -61 -49 -80
-80 -30 -49 -30 -49 -28 -189 2 -234 46 -572 114 -875 103 -465 274 -904 491
-1265 44 -72 80 -135 81 -140 1 -4 -58 -23 -131 -41 -432 -108 -879 -303
-1292 -563 -341 -215 -749 -543 -800 -641 -48 -96 -34 -183 43 -268 121 -132
453 -391 719 -561 438 -281 852 -466 1293 -577 338 -86 550 -110 895 -102 300
7 509 38 813 122 549 150 1189 492 1690 902 l77 64 98 -78 c309 -249 593 -430
949 -606 399 -197 772 -316 1198 -383 156 -24 556 -30 741 -10 596 63 1225
302 1820 691 330 216 682 505 729 599 30 61 33 133 6 191 -30 66 -207 225
-468 421 -521 390 -1088 667 -1638 799 -60 15 -116 29 -123 31 -8 2 2 26 31
71 368 576 623 1429 654 2189 6 143 5 154 -16 198 -32 64 -91 112 -158 127
-105 24 -551 -18 -883 -82 -563 -109 -1054 -289 -1473 -541 -55 -33 -100 -58
-101 -56 -1 2 -16 62 -34 134 -146 589 -462 1187 -929 1759 -132 162 -248 281
-297 304 -62 30 -147 28 -213 -5z"/>
<path d="M28832 32779 c-184 -25 -357 -86 -488 -171 -90 -59 -225 -185 -291
-271 -90 -117 -172 -297 -218 -481 -31 -123 -31 -133 11 -446 66 -496 237
-1399 380 -2010 327 -1397 717 -2344 1021 -2482 87 -40 275 -25 459 37 697
232 1405 1051 1576 1821 30 136 33 438 4 559 -43 186 -111 310 -241 441 -145
147 -268 216 -630 353 l-203 77 25 29 c58 70 202 298 250 395 107 216 157 428
156 665 0 164 -14 248 -63 397 -175 525 -706 960 -1301 1068 -134 24 -344 33
-447 19z m518 -575 c155 -29 322 -137 420 -270 139 -188 211 -477 189 -765
-34 -463 -259 -874 -618 -1133 -144 -103 -344 -196 -501 -231 -36 -8 -74 -17
-86 -20 -17 -4 -26 5 -46 43 -69 127 -110 320 -127 594 -10 156 1 1263 15
1525 l6 123 47 21 c281 126 473 157 701 113z m965 -2590 c176 -29 305 -115
371 -249 43 -87 69 -220 61 -317 -23 -280 -406 -944 -718 -1244 -135 -130
-247 -194 -339 -194 -85 0 -187 72 -277 194 -139 188 -301 561 -375 861 -30
124 -30 265 1 355 91 263 393 491 771 582 151 36 333 40 505 12z"/>
<path d="M16080 32619 c-316 -80 -490 -219 -465 -370 7 -39 11 -43 69 -69 79
-36 275 -99 331 -107 l43 -5 6 -97 c3 -53 8 -170 11 -261 21 -593 93 -1510
165 -2100 79 -644 204 -1318 316 -1707 146 -510 377 -927 596 -1072 95 -64
178 -85 307 -78 142 8 275 49 511 159 500 234 1450 888 1758 1211 l62 65 0
171 0 171 -67 0 c-147 -1 -316 -37 -493 -107 -297 -117 -557 -275 -995 -603
-137 -103 -298 -221 -356 -262 -101 -72 -108 -75 -178 -82 -105 -11 -169 10
-235 77 -170 172 -288 536 -356 1097 -56 469 -47 598 50 748 119 185 359 250
862 232 l207 -8 197 -67 197 -68 85 6 c155 11 211 61 231 203 33 231 -72 378
-330 465 -167 56 -240 61 -789 56 -458 -4 -502 -6 -585 -25 -100 -23 -167 -48
-255 -92 l-59 -30 -26 48 c-91 161 -124 318 -132 642 -6 240 1 369 42 750 13
124 27 263 30 310 l7 85 246 -7 c136 -3 337 -13 447 -22 110 -9 274 -20 365
-26 91 -6 284 -20 430 -30 322 -24 839 -44 899 -36 98 13 165 73 246 219 l37
68 -28 40 c-34 49 -79 86 -164 132 -140 76 -261 106 -530 132 -91 8 -289 31
-440 50 -357 44 -799 94 -1340 150 -239 24 -476 49 -527 55 -144 16 -316 11
-403 -11z"/>
<path d="M10445 32219 c-77 -26 -126 -74 -171 -164 -58 -118 -67 -197 -61
-520 5 -229 10 -312 32 -455 68 -460 302 -1494 475 -2100 242 -851 467 -1493
656 -1875 92 -187 151 -274 216 -318 37 -25 49 -28 87 -23 56 8 132 42 210 95
58 40 61 44 85 120 40 127 50 233 31 348 -33 206 -114 391 -292 671 -279 438
-327 624 -219 843 l31 64 60 -3 c244 -14 492 -82 760 -211 182 -88 358 -193
695 -416 449 -298 597 -386 820 -489 201 -93 367 -138 574 -156 138 -12 171
-3 209 57 34 53 47 125 47 252 0 101 -2 110 -29 152 -112 175 -542 449 -1246
795 -667 327 -1417 651 -1687 729 l-57 16 19 45 c101 234 350 501 920 984 389
330 540 476 675 655 79 104 135 238 135 324 l0 34 -127 -6 c-278 -15 -491 -71
-729 -193 -260 -133 -434 -287 -854 -754 -363 -405 -411 -456 -516 -553 -120
-111 -100 -109 -191 -23 -58 54 -107 186 -137 365 -19 115 -23 164 -46 601
-38 695 -73 898 -192 1083 -29 45 -32 47 -77 47 -25 -1 -73 -10 -106 -21z"/>
<path d="M38805 32233 c-96 -22 -171 -86 -219 -186 -46 -99 -58 -189 -57 -447
1 -129 6 -282 11 -340 51 -511 348 -1806 620 -2695 254 -832 478 -1407 647
-1662 58 -89 102 -129 150 -139 46 -9 128 19 221 76 92 57 100 69 133 205 48
200 6 431 -123 683 -32 62 -106 190 -166 285 -173 276 -214 358 -247 497 -28
124 -19 209 37 333 l31 67 51 -5 c230 -26 342 -47 476 -93 283 -97 479 -203
975 -530 450 -297 623 -399 832 -495 208 -95 376 -141 582 -158 136 -11 172 0
208 65 42 76 59 298 28 371 -65 156 -510 449 -1210 795 -636 315 -1311 611
-1665 730 -69 24 -126 44 -128 45 -1 1 18 42 42 91 68 134 161 250 366 455
187 188 260 253 610 549 307 260 538 493 628 635 58 90 101 212 102 284 l0 24
-124 -6 c-397 -20 -715 -138 -1016 -375 -145 -115 -283 -255 -620 -627 -169
-187 -366 -398 -439 -468 l-131 -129 -27 20 c-77 56 -111 105 -146 212 -62
185 -69 242 -97 780 -37 701 -75 920 -194 1113 -28 45 -30 47 -75 46 -25 -1
-55 -3 -66 -6z"/>
<path d="M24648 31650 c-233 -40 -394 -209 -521 -550 -52 -139 -90 -291 -153
-606 -95 -479 -144 -661 -230 -844 -53 -112 -107 -186 -175 -240 -82 -65 -89
-64 -176 21 -141 140 -271 315 -688 929 -328 483 -399 576 -584 760 -207 206
-384 316 -574 356 -269 56 -366 -30 -483 -431 l-26 -90 -9 -690 c-5 -379 -7
-769 -4 -865 17 -522 58 -924 195 -1880 43 -305 84 -601 91 -657 13 -113 13
-113 95 -113 55 0 127 53 257 189 l97 103 0 101 c0 239 -15 343 -145 1032
-145 767 -150 809 -150 1275 1 458 23 664 112 1034 l35 148 75 -73 c125 -124
263 -318 638 -899 268 -416 413 -608 581 -770 215 -208 362 -280 571 -280 116
0 190 17 289 65 165 80 340 330 443 631 17 50 71 250 120 445 97 387 146 545
222 717 66 149 127 248 198 320 50 51 140 122 155 122 11 0 127 -151 193 -252
223 -337 427 -879 582 -1543 52 -224 77 -351 167 -839 74 -403 76 -411 110
-458 48 -64 147 -153 202 -180 31 -14 71 -23 124 -26 72 -4 81 -2 119 22 29
20 48 44 67 84 23 52 26 71 30 217 4 182 -14 358 -74 704 -92 539 -265 1206
-425 1639 -253 688 -615 1190 -956 1327 -120 48 -272 65 -395 45z"/>
<path d="M32659 31622 c-36 -23 -51 -42 -74 -93 -52 -116 -66 -190 -72 -371
l-6 -168 745 0 744 0 12 -172 c23 -318 53 -485 253 -1365 252 -1114 278 -1252
299 -1587 8 -125 7 -162 -3 -168 -58 -36 -322 -42 -695 -14 -252 18 -523 21
-603 6 -73 -14 -139 -50 -167 -91 -21 -30 -23 -42 -20 -114 7 -121 68 -241
232 -452 l71 -92 150 -1 c83 0 391 -7 685 -16 575 -17 1233 -15 1425 5 585 61
798 103 1147 223 l118 41 112 116 c142 146 182 215 183 313 0 60 -3 70 -30 99
-36 38 -107 71 -195 90 -68 15 -345 17 -1035 9 l-310 -4 -79 27 c-96 34 -141
64 -227 154 -221 229 -379 626 -503 1258 -61 312 -89 555 -107 930 -9 197 -9
243 4 318 44 251 203 414 460 467 115 24 312 53 512 75 204 22 315 48 413 95
185 88 278 232 294 453 l5 57 -1847 0 -1846 0 -45 -28z"/>
<path d="M44204 31636 c-99 -43 -161 -223 -171 -493 l-6 -153 746 0 745 0 6
-62 c2 -35 10 -124 16 -198 23 -282 54 -439 294 -1495 199 -873 246 -1140 249
-1409 l2 -129 -50 -15 c-70 -20 -373 -19 -653 1 -250 19 -512 22 -593 7 -80
-15 -158 -58 -180 -100 -59 -110 28 -324 237 -581 l54 -66 342 -7 c189 -3 501
-11 693 -17 417 -14 1010 -6 1260 15 474 41 711 86 1068 202 159 52 206 85
328 227 86 101 130 185 131 253 2 96 -51 148 -190 186 -71 20 -103 21 -417 22
-187 0 -473 -2 -635 -4 -337 -6 -401 3 -506 66 -226 135 -424 498 -555 1017
-117 467 -173 865 -185 1335 -5 201 -4 248 10 306 26 109 72 192 146 266 76
76 158 123 265 150 80 21 340 61 510 80 285 31 419 66 532 139 70 45 134 119
169 195 26 56 53 181 54 244 l0 32 -1842 0 c-1532 -1 -1848 -3 -1874 -14z"/>
<path d="M26650 17875 l0 -165 3455 0 3455 0 0 165 0 165 -3455 0 -3455 0 0
-165z"/>
<path d="M16571 14725 c-58 -17 -103 -41 -164 -89 -32 -25 -61 -75 -166 -286
-327 -657 -492 -1168 -428 -1323 28 -66 173 -116 333 -117 206 0 452 86 581
203 100 92 144 177 144 279 1 77 -22 140 -85 241 l-53 85 41 12 c67 20 168 75
217 119 208 183 198 529 -22 753 -115 118 -259 162 -398 123z m225 -235 c72
-35 129 -99 140 -156 19 -104 -19 -221 -102 -313 -134 -149 -335 -207 -519
-150 l-67 21 6 36 c10 67 66 157 234 382 l166 222 39 -5 c22 -3 68 -20 103
-37z m-324 -850 c119 -44 218 -142 218 -214 -1 -46 -32 -107 -74 -144 -69 -61
-253 -141 -384 -167 -153 -31 -201 7 -189 150 13 142 63 290 119 346 61 61
192 73 310 29z"/>
<path d="M43378 14440 c-66 -14 -96 -26 -127 -50 -89 -72 -190 -232 -233 -370
-18 -60 -23 -98 -23 -190 0 -104 3 -121 27 -172 31 -67 95 -140 143 -162 19
-9 59 -21 90 -27 98 -18 179 1 516 120 186 66 291 65 362 -2 80 -75 71 -147
-44 -347 -117 -203 -137 -268 -104 -345 30 -74 111 -62 191 29 60 69 147 248
180 371 32 120 40 314 15 375 -23 55 -60 99 -110 128 -41 24 -55 27 -141 27
-110 -1 -149 -11 -369 -97 -198 -77 -294 -101 -377 -96 -70 4 -98 20 -148 82
-42 51 -48 145 -16 240 34 102 143 261 266 387 35 36 64 71 64 76 0 16 -35 43
-56 42 -10 0 -58 -9 -106 -19z"/>
<path d="M17773 13855 c-33 -24 -28 -48 22 -109 l45 -55 -86 -153 c-273 -490
-492 -1010 -530 -1258 -33 -217 8 -326 137 -364 155 -46 559 -43 811 5 54 11
60 15 88 61 37 60 33 67 -48 97 -122 44 -268 50 -596 23 -75 -6 -93 -5 -117
10 -78 48 -48 235 79 483 64 125 100 157 176 157 85 0 249 -96 328 -193 79
-95 146 -102 188 -19 27 53 25 88 -8 141 -38 59 -80 91 -252 194 -104 62 -159
88 -203 97 l-59 12 5 48 c9 72 70 184 185 338 l104 139 41 -27 c23 -15 147
-102 276 -194 301 -214 346 -241 390 -234 139 21 101 123 -110 289 -383 301
-619 480 -658 499 -59 29 -177 36 -208 13z"/>
<path d="M42100 13569 c-84 -14 -159 -72 -248 -190 -100 -133 -146 -267 -147
-424 0 -98 3 -116 26 -166 74 -157 206 -213 410 -175 47 9 155 37 240 62 235
69 353 71 430 7 63 -54 75 -123 36 -208 -13 -27 -62 -107 -109 -177 -95 -141
-123 -207 -115 -275 6 -56 30 -83 74 -83 48 0 83 21 139 83 86 95 161 238 210
402 37 126 40 278 6 347 -29 58 -89 113 -139 127 -55 16 -188 13 -263 -5 -36
-8 -127 -35 -202 -59 -142 -46 -274 -75 -337 -75 -127 0 -213 85 -212 210 0
122 89 268 274 452 107 107 116 120 105 138 -11 16 -23 20 -68 19 -30 -1 -80
-5 -110 -10z"/>
<path d="M40845 12983 c-68 -11 -890 -340 -947 -379 -74 -51 -126 -143 -108
-190 10 -26 12 -27 73 -21 34 3 70 9 78 12 13 5 38 -30 114 -157 337 -562 665
-987 870 -1128 65 -45 151 -79 198 -80 81 0 158 67 269 235 102 156 278 520
278 577 0 22 -46 108 -58 108 -17 0 -77 -44 -119 -88 -70 -71 -143 -190 -232
-376 -74 -153 -83 -168 -116 -182 -33 -13 -39 -13 -81 6 -27 11 -76 50 -118
92 -75 76 -195 240 -221 302 -21 50 -19 112 6 152 41 67 209 159 327 180 95
17 132 43 132 92 0 42 -27 89 -62 108 -32 18 -118 17 -174 -2 -25 -8 -110 -50
-187 -92 -102 -55 -157 -92 -195 -131 l-54 -54 -56 59 c-64 67 -116 160 -191
342 l-50 122 77 39 c42 21 167 78 277 127 273 121 377 175 392 205 20 38 17
107 -4 113 -33 9 -88 14 -118 9z"/>
<path d="M19750 12749 c-285 -167 -592 -481 -931 -949 -221 -305 -361 -572
-321 -612 10 -10 22 -8 60 12 61 32 317 287 492 490 73 85 136 156 140 158 8
3 240 -157 425 -292 118 -87 120 -89 117 -125 -1 -20 -11 -133 -22 -251 -27
-296 -27 -361 3 -396 17 -19 33 -27 55 -27 80 0 119 100 176 453 65 398 91
703 91 1055 -1 268 -3 296 -23 369 -26 93 -41 120 -85 146 -48 30 -83 24 -177
-31z m99 -569 c-5 -102 -15 -216 -23 -255 -14 -68 -50 -182 -61 -193 -8 -9
-212 94 -266 134 -104 76 -125 154 -68 253 36 63 266 302 354 368 l60 45 7
-83 c4 -46 3 -167 -3 -269z"/>
<path d="M39172 12175 l-33 -14 60 -118 c32 -65 107 -194 166 -288 170 -268
214 -343 266 -446 44 -88 109 -240 109 -256 0 -3 -44 -3 -97 0 -115 7 -212 32
-448 118 -381 137 -545 151 -737 62 -44 -21 -78 -42 -78 -50 0 -26 58 -246 79
-304 54 -144 475 -777 518 -780 36 -2 59 3 95 24 39 21 54 47 49 82 -7 43 -91
192 -238 418 -143 220 -242 392 -231 402 2 2 33 12 69 21 111 28 292 0 494
-79 50 -19 137 -53 195 -75 223 -86 405 -112 535 -77 91 24 108 44 103 115 -3
44 -18 86 -70 192 -75 154 -157 285 -381 608 -86 124 -184 275 -218 335 -35
61 -68 113 -73 117 -18 13 -99 8 -134 -7z"/>
<path d="M20837 11742 l-59 -27 -54 -150 c-89 -247 -161 -473 -186 -590 -33
-158 -33 -380 0 -477 61 -175 184 -287 397 -359 59 -20 90 -24 196 -24 l126 0
84 42 c160 79 303 257 415 516 20 45 74 161 120 258 128 270 171 421 150 532
-13 68 -101 121 -155 92 -24 -12 -28 -22 -39 -100 -25 -174 -119 -487 -212
-709 -94 -224 -264 -383 -451 -422 -60 -12 -78 -12 -138 0 -216 45 -331 194
-331 428 0 161 52 361 176 674 52 130 64 172 63 215 0 58 -18 121 -34 125 -5
1 -36 -10 -68 -24z"/>
<path d="M24687 11339 c-31 -48 -40 -116 -34 -257 11 -264 107 -560 252 -777
56 -84 167 -198 206 -210 24 -8 24 -6 -5 -164 -62 -336 -32 -778 75 -1104 13
-39 35 -52 80 -45 34 5 56 52 75 158 20 114 16 218 -21 535 -27 241 -30 317
-14 415 20 123 57 183 403 644 260 345 345 475 353 536 5 32 -1 48 -32 99 -21
34 -42 61 -47 61 -18 0 -88 -41 -124 -72 -56 -49 -149 -175 -296 -398 -158
-240 -240 -346 -315 -402 -52 -40 -55 -41 -94 -29 -22 7 -58 30 -81 53 -77 77
-109 186 -152 524 -29 221 -45 297 -79 363 -25 50 -58 78 -104 87 -26 5 -34 2
-46 -17z"/>
<path d="M22463 11162 c-15 -10 -43 -75 -43 -101 0 -16 52 -40 307 -141 168
-68 335 -129 370 -137 35 -8 76 -25 91 -38 l26 -23 -46 -188 c-124 -498 -173
-899 -134 -1084 9 -41 24 -86 34 -100 25 -34 93 -57 128 -45 79 29 102 146
114 588 10 368 11 379 86 593 58 167 75 187 166 186 42 -1 104 -13 183 -36
182 -55 279 -46 324 28 39 63 37 65 -89 103 -63 19 -299 81 -525 139 -465 119
-601 156 -801 219 -144 46 -170 51 -191 37z"/>
<path d="M36693 10855 c-17 -7 -39 -25 -48 -39 -17 -25 -16 -30 15 -119 146
-421 332 -800 493 -1002 110 -139 240 -216 336 -200 130 22 686 437 770 575
26 44 27 84 1 110 -28 28 -65 25 -164 -11 -103 -37 -168 -82 -326 -224 -136
-123 -201 -168 -276 -192 -50 -15 -53 -15 -87 6 -57 35 -165 158 -239 270 -82
125 -202 368 -319 644 -91 214 -89 212 -156 182z"/>
<path d="M34080 10573 c-36 -2 -226 -15 -423 -28 -337 -23 -361 -26 -416 -51
-90 -40 -148 -113 -122 -153 4 -7 42 -18 84 -24 l75 -11 17 -85 c51 -255 173
-701 256 -933 110 -308 181 -447 288 -561 86 -93 171 -113 266 -64 122 62 313
225 486 412 133 145 142 161 134 229 -4 31 -11 59 -15 61 -19 12 -146 -42
-218 -91 -44 -30 -147 -123 -238 -214 -147 -148 -164 -162 -198 -163 -82 -2
-170 137 -239 378 -40 140 -42 172 -15 225 30 59 98 94 227 116 79 13 107 14
175 4 69 -11 86 -10 118 3 43 18 55 54 38 116 -29 108 -144 124 -448 62 -111
-22 -153 -36 -189 -59 l-47 -31 -24 35 c-49 73 -75 184 -92 403 -6 79 -8 147
-3 151 10 10 111 23 383 50 210 21 385 45 413 56 19 7 40 38 55 81 9 26 8 34
-8 48 -44 39 -118 48 -320 38z"/>
<path d="M35030 10409 c-39 -16 -60 -40 -60 -69 0 -38 100 -382 156 -536 128
-356 243 -573 369 -700 80 -81 132 -108 212 -108 57 -1 72 4 172 56 246 127
580 358 648 447 41 53 43 92 7 120 -33 26 -61 26 -147 2 -104 -30 -163 -62
-275 -147 -183 -140 -262 -192 -324 -213 -92 -31 -102 -29 -168 37 -150 151
-267 391 -446 919 -65 192 -70 203 -94 202 -14 0 -36 -5 -50 -10z"/>
<path d="M32616 10258 c-61 -56 -77 -227 -56 -590 23 -383 16 -576 -25 -661
-8 -18 -37 -57 -64 -87 l-50 -55 -25 25 c-56 55 -230 381 -356 665 -73 167
-94 190 -159 181 -126 -17 -153 -106 -170 -571 -10 -288 -20 -354 -62 -436
-10 -20 -31 -47 -46 -59 l-28 -22 -47 51 c-66 72 -163 271 -303 619 -126 312
-174 407 -218 432 -24 13 -30 13 -54 0 -16 -9 -30 -28 -35 -47 -17 -65 48
-364 127 -592 168 -481 375 -751 575 -751 71 0 100 20 139 99 67 133 126 405
146 666 9 117 12 125 39 125 56 0 117 -91 201 -295 103 -253 211 -361 339
-339 118 19 196 112 250 296 73 254 85 678 31 1187 -12 113 -17 137 -36 157
-29 31 -79 32 -113 2z"/>
<path d="M28078 10210 c-165 -28 -337 -119 -449 -237 -88 -92 -104 -129 -104
-243 0 -85 3 -101 29 -150 48 -92 86 -141 179 -232 l90 -87 -7 -74 c-4 -41
-22 -137 -42 -213 -41 -164 -52 -286 -34 -376 28 -143 89 -202 210 -202 101 0
175 39 372 196 190 150 215 158 325 97 188 -103 221 -119 268 -130 42 -9 57
-8 88 4 35 15 37 19 37 61 0 107 -46 155 -205 216 l-70 27 -3 45 c-2 31 7 73
32 142 49 134 54 179 26 244 -25 58 -39 63 -96 36 -47 -23 -109 -102 -161
-210 l-44 -91 -47 9 c-75 16 -183 71 -239 122 -107 97 -98 169 57 456 116 215
145 323 120 444 -26 126 -143 178 -332 146z m159 -242 c-11 -94 -47 -211 -94
-308 -37 -76 -60 -110 -118 -167 -40 -40 -79 -73 -86 -73 -23 0 -229 246 -229
273 0 50 31 125 69 169 78 88 249 153 410 157 l54 1 -6 -52z m-81 -956 c106
-73 178 -127 193 -146 13 -15 10 -21 -25 -57 -125 -129 -334 -210 -378 -147
-45 63 5 326 72 378 37 30 62 25 138 -28z"/>
</g>
</svg>
